<?xml version="1.0" encoding="utf-8"?>
<!-- Generator: Adobe Illustrator 18.0.0, SVG Export Plug-In . SVG Version: 6.00 Build 0)  -->
<!DOCTYPE svg PUBLIC "-//W3C//DTD SVG 1.1//EN" "http://www.w3.org/Graphics/SVG/1.1/DTD/svg11.dtd">
<svg version="1.1" id="Camada_1" xmlns="http://www.w3.org/2000/svg" xmlns:xlink="http://www.w3.org/1999/xlink" x="0px" y="0px"
	 viewBox="0 0 1921 191.954" enable-background="new 0 0 1921 191.954" xml:space="preserve">
<linearGradient id="SVGID_1_" gradientUnits="userSpaceOnUse" x1="-12182.835" y1="-9279.5586" x2="-12182.835" y2="-8712.0332" gradientTransform="matrix(-0.9979 -0.0655 0.0655 -0.9979 -13274.9268 -9851.0186)">
	<stop  offset="0" style="stop-color:#A5E6C9;stop-opacity:0"/>
	<stop  offset="0.4898" style="stop-color:#E79DAF"/>
	<stop  offset="1" style="stop-color:#DB4062"/>
</linearGradient>
<circle fill="url(#SVGID_1_)" cx="-1721.462" cy="133.13" r="153.993"/>
<linearGradient id="SVGID_2_" gradientUnits="userSpaceOnUse" x1="-980" y1="336.2049" x2="-980" y2="-423.3511">
	<stop  offset="0" style="stop-color:#A5E6C9;stop-opacity:0"/>
	<stop  offset="0.4898" style="stop-color:#E79DAF"/>
	<stop  offset="1" style="stop-color:#DB4062"/>
</linearGradient>
<path opacity="0.5" fill="url(#SVGID_2_)" d="M-202.058,76.745c-212.974,0-212.974,68.152-425.948,68.152
	c-212.978,0-212.978-68.152-425.955-68.152c-212.976,0-212.976,68.152-425.951,68.152s-212.976-68.152-425.951-68.152
	c-11.214,0-22.137,0.398-32.137,1.134v-4.925h-2v83.81c45-13.538,96.644-25.019,184.058-25.019
	c212.974,0,212.974,68.152,425.948,68.152c212.978,0,212.978-68.152,425.955-68.152c212.976,0,212.976,68.152,425.951,68.152
	s212.976-68.152,425.951-68.152c11.214,0,22.137,0.398,32.137,1.134v-31.71C-65,87.892-115.933,76.745-202.058,76.745z"/>
<path fill="#B0F6E1" d="M-19,196.954v-126h-1v5.852c-10-0.734-21.375-1.131-32.567-1.131c-212.533,0-212.781,68.011-425.314,68.011
	s-212.657-68.011-425.19-68.011c-212.534,0-212.596,68.011-425.131,68.011c-212.531,0-213.562-68.011-426.093-68.011
	c-87.232,0-138.706,11.458-184.706,24.967v95.313L-19,196.954z"/>
<linearGradient id="SVGID_3_" gradientUnits="userSpaceOnUse" x1="-14027" y1="88.5048" x2="-14027" y2="465.2451" gradientTransform="matrix(-1 0 0 1 -15006 0)">
	<stop  offset="0" style="stop-color:#A5E6C9;stop-opacity:0"/>
	<stop  offset="0.4898" style="stop-color:#E79DAF"/>
	<stop  offset="1" style="stop-color:#DB4062"/>
</linearGradient>
<path opacity="0.5" fill="url(#SVGID_3_)" d="M-1939-75.046H-19v224.81c-45-13.538-96.644-25.019-184.058-25.019
	c-212.974,0-212.974,68.152-425.948,68.152c-212.978,0-212.978-68.152-425.955-68.152c-212.976,0-212.976,68.152-425.951,68.152
	s-212.976-68.152-425.951-68.152c-11.214,0-21.905,0.398-32.137,1.134V-75.046z"/>
<linearGradient id="SVGID_4_" gradientUnits="userSpaceOnUse" x1="59.5897" y1="-6010.9873" x2="59.5897" y2="-5939.2817" gradientTransform="matrix(0.7071 0.7071 -0.7071 0.7071 -6081.2007 4112.0269)">
	<stop  offset="0" style="stop-color:#A5E6C9"/>
	<stop  offset="0.4898" style="stop-color:#E79DAF"/>
	<stop  offset="1" style="stop-color:#DB4062"/>
</linearGradient>
<circle opacity="0.2" fill="url(#SVGID_4_)" cx="-1830.256" cy="-54.645" r="19.457"/>
<linearGradient id="SVGID_5_" gradientUnits="userSpaceOnUse" x1="1244.6053" y1="-7135.0762" x2="1244.6053" y2="-7032.4858" gradientTransform="matrix(0.7071 0.7071 -0.7071 0.7071 -6081.2007 4112.0269)">
	<stop  offset="0" style="stop-color:#A5E6C9"/>
	<stop  offset="0.4898" style="stop-color:#E79DAF"/>
	<stop  offset="1" style="stop-color:#DB4062"/>
</linearGradient>
<circle opacity="0.2" fill="url(#SVGID_5_)" cx="-215.391" cy="6.355" r="27.837"/>
<linearGradient id="SVGID_6_" gradientUnits="userSpaceOnUse" x1="3638.6008" y1="3803.6594" x2="3578.2219" y2="3864.0383" gradientTransform="matrix(0.8045 -0.1955 -0.1955 0.8045 -2371.752 -2371.7495)">
	<stop  offset="0" style="stop-color:#A5E6C9"/>
	<stop  offset="0.4898" style="stop-color:#E79DAF"/>
	<stop  offset="1" style="stop-color:#DB4062"/>
</linearGradient>
<path opacity="0.2" fill="none" stroke="url(#SVGID_6_)" stroke-miterlimit="10" d="M-208.871-20.914
	c8.303-4.15,16.07-6.118,19.277-2.911c6.316,6.316-7.444,30.318-18.399,41.273s-34.956,24.715-41.273,18.399
	c-3.984-3.984,0.018-15.001,6.265-25.344"/>
<rect id="_x3C_Fatia_x3E_" x="-1940" y="-76.046" fill="none" width="1921" height="270"/>
<rect id="_x3C_Fatia_x3E__3_" x="-1941" y="-76.046" fill="none" width="1920" height="268"/>
<path fill="#B0F6E1" d="M1-12.046v32.887c221,12.007,241.578,87.923,499.189,87.923c279.736,0,280.293-89.515,560.028-89.515
	c279.734,0,279.019,89.515,558.752,89.515c155.073,0,227.03-27.509,302.03-52.028v-68.782H1z"/>
<path opacity="0.5" fill="#B0F6E1" d="M1619.589,89.702C1339.273,89.702,1339.238,0,1058.922,0
	C778.604,0,778.546,89.702,498.228,89.702C240.865,89.702,219.683,14.093,1,1.71v161.169c10.231-0.735,21.372,2.011,32.137-1.134
	c196.772-57.479,196.772,71.535,425.951,18.152C666.511,131.583,672.063,66.745,885.039,66.745
	c212.977,0,212.977,73.152,425.955,73.152c212.974,0,212.974-48.152,425.948-48.152c87.414,0,139.058,31.481,184.058,45.019V38.19
	C1842.829,62.6,1773.671,89.702,1619.589,89.702z"/>
<path opacity="0.5" fill="#B0F6E1" d="M302.411,54.702C582.727,54.702,582.762-35,863.078-35
	c280.318,0,280.375,89.702,560.694,89.702C1681.135,54.702,1702-20.907,1921-33.29v161.169c-10-0.735-21.372,2.011-32.137-1.134
	c-196.772-57.479-196.772,71.535-425.951,18.152c-207.423-48.314-212.976-113.152-425.951-113.152
	c-212.977,0-212.977,113.152-425.955,113.152c-212.974,0-212.974-88.152-425.948-88.152C97.644,56.745,46,88.227,1,101.764V3.19
	C79.171,27.6,148.329,54.702,302.411,54.702z"/>
<rect id="_x3C_Fatia_x3E__1_" x="1" y="1.954" fill="none" width="1920" height="187"/>
</svg>
