<?xml version="1.0" encoding="utf-8"?>
<!-- Generator: Adobe Illustrator 18.0.0, SVG Export Plug-In . SVG Version: 6.00 Build 0)  -->
<!DOCTYPE svg PUBLIC "-//W3C//DTD SVG 1.1//EN" "http://www.w3.org/Graphics/SVG/1.1/DTD/svg11.dtd">
<svg version="1.1" id="Camada_1" xmlns="http://www.w3.org/2000/svg" xmlns:xlink="http://www.w3.org/1999/xlink" x="0px" y="0px"
	 viewBox="0 0 1921 268" enable-background="new 0 0 1921 268" xml:space="preserve">
<linearGradient id="SVGID_1_" gradientUnits="userSpaceOnUse" x1="-10241.835" y1="-9203.5127" x2="-10241.835" y2="-8635.9873" gradientTransform="matrix(-0.9979 -0.0655 0.0655 -0.9979 -9402.0811 -9571.9082)">
	<stop  offset="0" style="stop-color:#A5E6C9;stop-opacity:0"/>
	<stop  offset="0.4898" style="stop-color:#E79DAF"/>
	<stop  offset="1" style="stop-color:#DB4062"/>
</linearGradient>
<circle fill="url(#SVGID_1_)" cx="219.538" cy="209.176" r="153.993"/>
<linearGradient id="SVGID_2_" gradientUnits="userSpaceOnUse" x1="961" y1="412.2508" x2="961" y2="-347.3052">
	<stop  offset="0" style="stop-color:#A5E6C9;stop-opacity:0"/>
	<stop  offset="0.4898" style="stop-color:#E79DAF"/>
	<stop  offset="1" style="stop-color:#DB4062"/>
</linearGradient>
<path opacity="0.5" fill="url(#SVGID_2_)" d="M1738.942,152.791c-212.974,0-212.974,68.152-425.948,68.152
	c-212.978,0-212.978-68.152-425.955-68.152c-212.976,0-212.976,68.152-425.951,68.152s-212.976-68.152-425.951-68.152
	c-11.214,0-22.137,0.398-32.137,1.134V149H1v83.81c45-13.538,96.644-25.019,184.058-25.019c212.974,0,212.974,68.152,425.948,68.152
	c212.978,0,212.978-68.152,425.955-68.152c212.976,0,212.976,68.152,425.951,68.152s212.976-68.152,425.951-68.152
	c11.214,0,22.137,0.398,32.137,1.134v-31.71C1876,163.938,1825.067,152.791,1738.942,152.791z"/>
<path fill="#B0F6E1" d="M1922,273V147h-1v5.852c-10-0.734-21.375-1.131-32.567-1.131c-212.533,0-212.781,68.011-425.314,68.011
	s-212.657-68.011-425.19-68.011c-212.534,0-212.596,68.011-425.131,68.011c-212.531,0-213.562-68.011-426.093-68.011
	C99.473,151.72,48,163.178,2,176.687V272L1922,273z"/>
<linearGradient id="SVGID_3_" gradientUnits="userSpaceOnUse" x1="-12086" y1="164.5507" x2="-12086" y2="541.2911" gradientTransform="matrix(-1 0 0 1 -11124 0)">
	<stop  offset="0" style="stop-color:#A5E6C9;stop-opacity:0"/>
	<stop  offset="0.4898" style="stop-color:#E79DAF"/>
	<stop  offset="1" style="stop-color:#DB4062"/>
</linearGradient>
<path opacity="0.5" fill="url(#SVGID_3_)" d="M2,1h1920v224.81c-45-13.538-96.644-25.019-184.058-25.019
	c-212.974,0-212.974,68.152-425.948,68.152c-212.978,0-212.978-68.152-425.955-68.152c-212.976,0-212.976,68.152-425.951,68.152
	s-212.976-68.152-425.951-68.152c-11.214,0-21.905,0.398-32.137,1.134V1z"/>
<linearGradient id="SVGID_4_" gradientUnits="userSpaceOnUse" x1="2000.5897" y1="-5934.9414" x2="2000.5897" y2="-5863.2358" gradientTransform="matrix(0.7071 0.7071 -0.7071 0.7071 -5458.9224 2761.8062)">
	<stop  offset="0" style="stop-color:#A5E6C9"/>
	<stop  offset="0.4898" style="stop-color:#E79DAF"/>
	<stop  offset="1" style="stop-color:#DB4062"/>
</linearGradient>
<circle opacity="0.2" fill="url(#SVGID_4_)" cx="110.744" cy="21.401" r="19.457"/>
<linearGradient id="SVGID_5_" gradientUnits="userSpaceOnUse" x1="3185.6055" y1="-7059.0303" x2="3185.6055" y2="-6956.4399" gradientTransform="matrix(0.7071 0.7071 -0.7071 0.7071 -5458.9224 2761.8062)">
	<stop  offset="0" style="stop-color:#A5E6C9"/>
	<stop  offset="0.4898" style="stop-color:#E79DAF"/>
	<stop  offset="1" style="stop-color:#DB4062"/>
</linearGradient>
<circle opacity="0.2" fill="url(#SVGID_5_)" cx="1725.609" cy="82.401" r="27.837"/>
<linearGradient id="SVGID_6_" gradientUnits="userSpaceOnUse" x1="5579.6011" y1="3879.7053" x2="5519.2217" y2="3940.0842" gradientTransform="matrix(0.8045 -0.1955 -0.1955 0.8045 -1977.3728 -1977.371)">
	<stop  offset="0" style="stop-color:#A5E6C9"/>
	<stop  offset="0.4898" style="stop-color:#E79DAF"/>
	<stop  offset="1" style="stop-color:#DB4062"/>
</linearGradient>
<path opacity="0.2" fill="none" stroke="url(#SVGID_6_)" stroke-miterlimit="10" d="M1732.129,55.132
	c8.303-4.15,16.07-6.118,19.277-2.911c6.316,6.316-7.444,30.318-18.399,41.273s-34.956,24.715-41.273,18.399
	c-3.984-3.984,0.018-15.001,6.265-25.344"/>
<rect id="_x3C_Fatia_x3E_" x="1" fill="none" width="1921" height="270"/>
<rect id="_x3C_Fatia_x3E__3_" fill="none" width="1920" height="268"/>
</svg>
