<?xml version="1.0" encoding="utf-8"?>
<!-- Generator: Adobe Illustrator 18.0.0, SVG Export Plug-In . SVG Version: 6.00 Build 0)  -->
<!DOCTYPE svg PUBLIC "-//W3C//DTD SVG 1.1//EN" "http://www.w3.org/Graphics/SVG/1.1/DTD/svg11.dtd">
<svg version="1.1" id="Camada_1" xmlns="http://www.w3.org/2000/svg" xmlns:xlink="http://www.w3.org/1999/xlink" x="0px" y="0px"
	 viewBox="0 0 259.1 203.8" enable-background="new 0 0 259.1 203.8" xml:space="preserve">
<g>
	<path fill="#868686" d="M248.1,158.6H11c-6.1,0-11-4.9-11-11V11C0,4.9,4.9,0,11,0h237.1c6.1,0,11,4.9,11,11v136.7
		C259.1,153.7,254.2,158.6,248.1,158.6 M11,6.8c-2.3,0-4.2,1.8-4.2,4.2v136.7c0,2.3,1.8,4.2,4.2,4.2h237.1c2.3,0,4.2-1.8,4.2-4.2V11
		c0-2.3-1.8-4.2-4.2-4.2H11z"/>
	<path fill="#868686" d="M251.5,203.8H7.6c-4.2,0-7.6-3.3-7.6-7.5v-37.1c0-4.1,3.4-7.5,7.6-7.5h243.8c4.2,0,7.6,3.3,7.6,7.5v37.1
		C259.1,200.5,255.7,203.8,251.5,203.8 M7.6,158.6c-0.4,0-0.8,0.3-0.8,0.7v37.1c0,0.3,0.3,0.7,0.8,0.7h243.8c0.4,0,0.8-0.3,0.8-0.7
		v-37.1c0-0.3-0.3-0.7-0.8-0.7H7.6z"/>
	<path fill="#AB5354" d="M85.1,174.4c0-1.2-1.6-5.6-6.1-5.6s-5.1,5.1-5.1,5.1s-0.6-5.1-5.1-5.1c-4.5,0-6.1,4.4-6.1,5.6
		s-0.9,6.2,11.1,11.9C85.9,180.6,85.1,175.6,85.1,174.4"/>
	<path fill="#AB5354" d="M139.4,174.4c0-1.2-1.6-5.6-6.1-5.6c-4.5,0-5.1,5.1-5.1,5.1s-0.6-5.1-5.1-5.1c-4.5,0-6.1,4.4-6.1,5.6
		s-0.9,6.2,11.1,11.9C140.3,180.6,139.4,175.6,139.4,174.4"/>
	<path fill="#AB5354" d="M190.2,174.4c0-1.2-1.6-5.6-6.1-5.6c-4.5,0-5.1,5.1-5.1,5.1s-0.6-5.1-5.1-5.1c-4.5,0-6.1,4.4-6.1,5.6
		s-0.9,6.2,11.1,11.9C191.1,180.6,190.2,175.6,190.2,174.4"/>
	<path fill="#82ABA3" d="M208.5,53H50.6c-2.8,0-5.1-2.3-5.1-5.1V21.3c0-2.8,2.3-5.1,5.1-5.1h158c2.8,0,5.1,2.3,5.1,5.1v26.6
		C213.6,50.8,211.4,53,208.5,53"/>
	<path fill="#92B6B1" d="M157.2,136.8H51.6c-3.4,0-6.1-2.7-6.1-6.1V66.8c0-3.4,2.7-6.1,6.1-6.1h105.6c3.4,0,6.1,2.7,6.1,6.1v63.9
		C163.3,134,160.6,136.8,157.2,136.8"/>
	<path fill="#92B6B1" d="M210,137.8h-34.1c-2,0-3.7-1.6-3.7-3.7V64.2c0-2,1.6-3.7,3.7-3.7H210c2,0,3.7,1.6,3.7,3.7v69.9
		C213.6,136.2,212,137.8,210,137.8"/>
	<path fill="#AB5354" d="M64.2,101.1v-1.6c0-0.9,0.4-1.6,1.3-2l17-10c0.5-0.3,1-0.5,1.4-0.5c0.5,0,1,0.2,1.5,0.6
		c0.4,0.4,0.7,1,0.7,1.6c0,0.8-0.3,1.4-1,1.8l-15.9,9.4l15.9,9.4c0.6,0.4,1,1,1,1.8c0,0.6-0.2,1.2-0.7,1.6c-0.4,0.4-1,0.6-1.5,0.6
		c-0.4,0-0.9-0.1-1.4-0.5l-17-10C64.6,102.7,64.2,102,64.2,101.1"/>
	<path fill="#AB5354" d="M114.7,87l-17.5,29.7c-0.3,0.5-0.7,0.7-1.3,0.7c-0.5,0-1.1-0.2-1.6-0.5c-0.5-0.4-0.8-0.9-0.8-1.5
		c0-0.5,0.2-1.1,0.5-1.7L111.7,84c0.3-0.5,0.8-0.7,1.4-0.7c0.5,0,1.1,0.2,1.6,0.5s0.8,0.8,0.8,1.4C115.3,85.8,115.1,86.3,114.7,87"
		/>
	<path fill="#AB5354" d="M144.5,99.4v1.7c0,0.9-0.4,1.6-1.2,2l-17,10c-0.5,0.3-1,0.5-1.4,0.5c-0.5,0-1-0.2-1.5-0.6
		c-0.4-0.4-0.7-1-0.7-1.6c0-0.8,0.3-1.4,1-1.8l15.8-9.4l-15.8-9.4c-0.6-0.4-1-1-1-1.8c0-0.6,0.2-1.2,0.7-1.6c0.4-0.4,1-0.6,1.5-0.6
		c0.4,0,0.9,0.1,1.4,0.5l17,10C144.1,97.8,144.5,98.5,144.5,99.4"/>
</g>
</svg>
