<?xml version="1.0" encoding="utf-8"?>
<!-- Generator: Adobe Illustrator 18.0.0, SVG Export Plug-In . SVG Version: 6.00 Build 0)  -->
<!DOCTYPE svg PUBLIC "-//W3C//DTD SVG 1.1//EN" "http://www.w3.org/Graphics/SVG/1.1/DTD/svg11.dtd">
<svg version="1.1" id="Camada_1" xmlns="http://www.w3.org/2000/svg" xmlns:xlink="http://www.w3.org/1999/xlink" x="0px" y="0px"
	 viewBox="0 0 259.1 203.8" enable-background="new 0 0 259.1 203.8" xml:space="preserve">
<g>
	<path fill="#88AFA8" d="M34.6,204.1c0.2-3.1,0.8-3.8,7.5-6.1c6-2,17.2-5.8,17.2-19.9c0-9.8-5.8-17.7-15.5-21.4
		c-1.6-0.8-7.4-4.3-6.1-12.8c0.9-5.3,12.8-4.4,12.9-4.4c4.3,0.5,8.2-2.7,8.6-7c0.5-4.3-2.7-8.2-7-8.6c-9.2-1-27.4,1.4-30,17.5
		c-2.9,17.1,8.9,27,15.4,29.8l0.5,0.2c5.5,1.9,5.5,5.3,5.5,6.7c0,2.5,0,2.9-6.5,5.1c-6.4,2.2-17.2,5.8-18.2,19.9L34.6,204.1z"/>
	<path fill="#88AFA8" d="M240.2,203c-1-14.1-11.7-17.7-18.2-19.9c-6.5-2.2-6.5-2.6-6.5-5.1c0-1.4,0-4.8,5.5-6.7l0.5-0.2
		c6.6-2.8,18.3-12.7,15.4-29.8c-2.7-16-20.8-18.4-30-17.5c-4.3,0.5-7.4,4.3-7,8.6c0.4,4.3,4.3,7.4,8.6,7c0.1,0,12.1-0.8,12.9,4.4
		c1.4,8.5-4.4,11.9-6.1,12.8c-9.8,3.6-15.5,11.5-15.5,21.4c0,14.1,11.2,17.9,17.2,19.9c6.8,2.3,7.3,3,7.5,6.1L240.2,203z"/>
	<path fill="#88AFA8" d="M191.8,197.6v-80.1c0-34.4-27.8-62.2-62.2-62.2c-34.4,0-62.2,27.8-62.2,62.2v80.1H191.8"/>
	<g>
		<defs>
			<polyline id="SVGID_1_" points="159.2,112.3 159.2,122.5 159.2,112.3 			"/>
		</defs>
		<clipPath id="SVGID_2_">
			<use xlink:href="#SVGID_1_"  overflow="visible"/>
		</clipPath>
		<polygon clip-path="url(#SVGID_2_)" fill="#A098A3" points="159.2,112.3 159.2,112.3 159.2,122.5 		"/>
	</g>
	<path fill="#A098A3" d="M97.7,123.7c-3.7,0-8.3-1.6-9-4.5c-0.8-3.3,1.6-6.4,6.3-6.8c0.3,0,0.7,0,1,0c4.5,0,9.9,2.5,8.4,8.2
		c0,0-1.4,2.7-5.3,3.1C98.7,123.7,98.2,123.7,97.7,123.7"/>
	<path fill="#A098A3" d="M160.5,123.7c3.7,0,8.3-1.6,9-4.5c0.8-3.3-1.6-6.4-6.3-6.8c-0.3,0-0.7,0-1,0c-4.5,0-9.9,2.5-8.4,8.2
		c0,0,1.4,2.7,5.3,3.1C159.6,123.7,160,123.7,160.5,123.7"/>
	<path fill="#5E5D5D" d="M166.9,102.6c0,0-1,3-3.9,3.5c-2.8,0.6-7-1.4-7.6-5.1c-0.6-3.8,1.2-7.3,4.6-7.8
		C163.5,92.9,168,95.6,166.9,102.6"/>
	<path fill="#5E5D5D" d="M107.1,102.6c0,0-1,3-3.9,3.5c-2.8,0.6-7-1.4-7.6-5.1c-0.6-3.8,1.2-7.3,4.6-7.8
		C103.7,92.9,108.2,95.6,107.1,102.6"/>
	<path fill="#5E5D5D" d="M129.2,113c-11.1,0-13.3-6.5-13.4-6.8c-0.2-0.6,0.1-1.3,0.8-1.5c0.6-0.2,1.3,0.1,1.5,0.8
		c0.1,0.2,1.9,5.1,11.1,5.1c9,0,10.8-4.5,10.9-4.7c0.2-0.6,0.9-0.9,1.5-0.7c0.6,0.2,0.9,0.9,0.7,1.5C142.2,107,140,113,129.2,113"/>
	<path fill="#5E5D5D" d="M186.9,56.4c0,0-0.3,1-1.3,1.2c-1,0.2-2.3-0.4-2.5-1.6c-0.2-1.2,0.4-2.4,1.5-2.5
		C185.7,53.3,187.3,54.2,186.9,56.4"/>
	<path fill="#5E5D5D" d="M196.4,56.2c0,0-0.2,0.7-0.9,0.8c-0.7,0.1-1.6-0.3-1.7-1.1c-0.1-0.8,0.3-1.6,1-1.7
		C195.7,54,196.7,54.6,196.4,56.2"/>
	<path fill="#AB5354" d="M77.8,43.3c-1-1-5.9-3.3-9.6,0.3c-3.7,3.7,0,8.3,0,8.3s-4.7-3.7-8.3,0c-3.7,3.7-1.4,8.5-0.3,9.6
		c1,1,4.4,5.8,18.8,0.6C83.6,47.7,78.9,44.3,77.8,43.3"/>
	<path fill="#5E5D5D" d="M60.7,45.6c-0.3,0-0.6-0.1-0.8-0.4l-6.4-6.4c-0.5-0.5-0.5-1.2,0-1.7c0.5-0.5,1.2-0.5,1.7,0l6.4,6.4
		c0.5,0.5,0.5,1.2,0,1.7C61.3,45.5,61,45.6,60.7,45.6"/>
	<path fill="#5E5D5D" d="M47.1,52c-0.6,0-1.2-0.5-1.2-1.2c0-0.7,0.5-1.2,1.2-1.2l5.3-0.1c0.7,0,1.2,0.5,1.2,1.2
		c0,0.7-0.5,1.2-1.2,1.2L47.1,52L47.1,52z"/>
	<path fill="#5E5D5D" d="M66.7,37.6L66.7,37.6c-0.7,0-1.2-0.6-1.2-1.2l0.1-5.3c0-0.7,0.5-1.2,1.2-1.2h0c0.7,0,1.2,0.6,1.2,1.2
		l-0.1,5.3C67.9,37.1,67.4,37.6,66.7,37.6"/>
	<path fill="#AB5354" d="M181.3,43.3c1-1,5.9-3.3,9.6,0.3c3.7,3.7,0,8.3,0,8.3s4.7-3.7,8.3,0c3.7,3.7,1.4,8.5,0.3,9.6
		c-1,1-4.4,5.8-18.8,0.6C175.5,47.7,180.3,44.3,181.3,43.3"/>
	<path fill="#5E5D5D" d="M198.5,45.6c-0.3,0-0.6-0.1-0.8-0.4c-0.5-0.5-0.5-1.2,0-1.7l6.4-6.4c0.5-0.5,1.2-0.5,1.7,0
		c0.5,0.5,0.5,1.2,0,1.7l-6.4,6.4C199.1,45.5,198.8,45.6,198.5,45.6"/>
	<path fill="#5E5D5D" d="M212,52L212,52l-5.4-0.1c-0.7,0-1.2-0.6-1.2-1.2c0-0.7,0.6-1.2,1.2-1.2l5.3,0.1c0.7,0,1.2,0.6,1.2,1.2
		C213.2,51.5,212.7,52,212,52"/>
	<path fill="#5E5D5D" d="M192.4,37.6c-0.7,0-1.2-0.5-1.2-1.2l-0.1-5.3c0-0.7,0.5-1.2,1.2-1.2c0.7,0,1.2,0.5,1.2,1.2l0.1,5.3
		C193.7,37.1,193.1,37.6,192.4,37.6L192.4,37.6z"/>
	<path fill="#88AFA8" d="M49.3,69.9c0,1.3-1.1,2.4-2.4,2.4s-2.4-1.1-2.4-2.4s1.1-6.4,2.4-6.4S49.3,68.6,49.3,69.9"/>
	<polygon fill="#5E5D5D" points="226.1,90.6 216.6,100.1 207.1,90.6 216.6,74 	"/>
	<path fill="#AB5354" d="M218.7,104.8l-0.6-0.1c-0.6-0.3-0.9-1.1-0.6-1.8c0.1-0.3,3.8-8.3,11.3-10.1c0.9-0.2,1.8-0.3,2.6-0.3
		c2.9,0,5.4,1.4,6.6,3.8c0.9,1.7,1,3.5,0.1,4.6c-1.2,1.6-2.9,2.5-5,2.5c-1.8,0-3.8-0.8-5.9-2.2c-0.8-0.5-1.5-0.8-2.3-0.8
		c-2.1,0-4,2-5.1,3.8C219.6,104.6,219.1,104.8,218.7,104.8"/>
	<path fill="#AB5354" d="M214.6,104.8c-0.5,0-0.9-0.2-1.2-0.7c-1-1.7-3-3.8-5.1-3.8c-0.8,0-1.5,0.3-2.3,0.8c-2,1.4-4,2.2-5.9,2.2
		c-2.1,0-3.8-1-5-2.5c-0.8-1.2-0.8-2.9,0.1-4.6c1.2-2.3,3.7-3.8,6.6-3.8c0.8,0,1.7,0.1,2.6,0.3c7.4,1.8,11.1,9.8,11.3,10.1
		c0.3,0.7,0,1.4-0.6,1.8L214.6,104.8z"/>
	<path fill="#88AFA8" d="M232.4,87.2c-0.7,1.6-2.5,2.4-4.1,1.7c-1.6-0.7-2.4-2.5-1.7-4.1c0.7-1.6,4-6.1,5.7-5.5
		C233.9,80.1,233.1,85.6,232.4,87.2"/>
	<path fill="#88AFA8" d="M225.7,78.3c-0.3,1.3-1.6,2-2.9,1.7c-1.3-0.3-2-1.6-1.7-2.9c0.3-1.3,2.7-5.9,3.9-5.6
		C226.3,71.8,226,77,225.7,78.3"/>
	<path fill="#88AFA8" d="M219,69.9c0,1.3-1.1,2.4-2.4,2.4s-2.4-1.1-2.4-2.4s1.1-6.4,2.4-6.4S219,68.6,219,69.9"/>
	<polygon fill="#5E5D5D" points="207.1,90.6 216.6,100.1 226.1,90.6 216.6,74 	"/>
	<path fill="#88AFA8" d="M200.8,87.2c0.7,1.6,2.5,2.4,4.1,1.7c1.6-0.7,2.4-2.5,1.7-4.1c-0.7-1.6-4-6.1-5.7-5.5
		C199.4,80.1,200.2,85.6,200.8,87.2"/>
	<path fill="#88AFA8" d="M207.5,78.3c0.3,1.3,1.6,2,2.9,1.7c1.3-0.3,2-1.6,1.7-2.9c-0.3-1.3-2.7-5.9-3.9-5.6
		C207,71.8,207.2,77,207.5,78.3"/>
	<path fill="#88AFA8" d="M214.2,69.9c0,1.3,1.1,2.4,2.4,2.4s2.4-1.1,2.4-2.4s-1.1-6.4-2.4-6.4S214.2,68.6,214.2,69.9"/>
	<path fill="#5E5D5D" d="M222.3,106.2c-2.3,0-4.2,1-5.7,2.5c-1.4-1.6-3.4-2.5-5.7-2.5c-4.2,0-7.6,3.4-7.6,7.6c0,1.2,0.9,2,2,2
		s2-0.9,2-2c0-1.9,1.6-3.5,3.6-3.5s3.5,1.6,3.5,3.5v4.4c0,1.2,0.9,2,2,2h0.1h0.1c1.2,0,2-0.9,2-2v-4.4c0-1.9,1.6-3.5,3.5-3.5
		c2,0,3.5,1.6,3.5,3.5c0,1.2,0.9,2,2,2c1.2,0,2-0.9,2-2C229.9,109.6,226.5,106.2,222.3,106.2"/>
	<polygon fill="#5E5D5D" points="56.4,90.6 46.9,100.1 37.4,90.6 46.9,74 	"/>
	<path fill="#AB5354" d="M49,104.8l-0.6-0.1c-0.6-0.3-0.9-1.1-0.6-1.8c0.1-0.3,3.8-8.3,11.3-10.1c0.9-0.2,1.8-0.3,2.6-0.3
		c2.9,0,5.4,1.4,6.6,3.8c0.9,1.7,1,3.5,0.1,4.6c-1.2,1.6-2.9,2.5-5,2.5c-1.8,0-3.8-0.8-5.9-2.2c-0.8-0.5-1.5-0.8-2.3-0.8
		c-2.1,0-4,2-5.1,3.8C49.9,104.6,49.5,104.8,49,104.8"/>
	<path fill="#AB5354" d="M44.9,104.8c-0.5,0-0.9-0.2-1.2-0.7c-1-1.7-3-3.8-5.1-3.8c-0.8,0-1.5,0.3-2.3,0.8c-2,1.4-4,2.2-5.9,2.2
		c-2.1,0-3.8-1-5-2.5c-0.8-1.2-0.8-2.9,0.1-4.6c1.2-2.3,3.7-3.8,6.6-3.8c0.8,0,1.7,0.1,2.6,0.3c7.4,1.8,11.1,9.8,11.3,10.1
		c0.3,0.7,0,1.4-0.6,1.8L44.9,104.8z"/>
	<path fill="#88AFA8" d="M62.7,87.2c-0.7,1.6-2.5,2.4-4.1,1.7c-1.6-0.7-2.4-2.5-1.7-4.1c0.7-1.6,4-6.1,5.7-5.5
		C64.1,80.1,63.4,85.6,62.7,87.2"/>
	<path fill="#88AFA8" d="M56,78.3c-0.3,1.3-1.6,2-2.9,1.7c-1.3-0.3-2-1.6-1.7-2.9c0.3-1.3,2.7-5.9,3.9-5.6
		C56.6,71.8,56.3,77,56,78.3"/>
	<polygon fill="#5E5D5D" points="37.4,90.6 46.9,100.1 56.4,90.6 46.9,74 	"/>
	<path fill="#88AFA8" d="M31.2,87.2c0.7,1.6,2.5,2.4,4.1,1.7c1.6-0.7,2.4-2.5,1.7-4.1c-0.7-1.6-4-6.1-5.7-5.5
		C29.7,80.1,30.5,85.6,31.2,87.2"/>
	<path fill="#88AFA8" d="M37.8,78.3c0.3,1.3,1.6,2,2.9,1.7c1.3-0.3,2-1.6,1.7-2.9c-0.3-1.2-2.7-5.9-3.9-5.6
		C37.2,71.8,37.5,77,37.8,78.3"/>
	<path fill="#88AFA8" d="M44.5,69.9c0,1.3,1.1,2.4,2.4,2.4c1.3,0,2.4-1.1,2.4-2.4s-1.1-6.4-2.4-6.4C45.6,63.5,44.5,68.6,44.5,69.9"
		/>
	<path fill="#5E5D5D" d="M52.6,106.2c-2.3,0-4.2,1-5.7,2.5c-1.4-1.6-3.4-2.5-5.7-2.5c-4.2,0-7.6,3.4-7.6,7.6c0,1.2,0.9,2,2,2
		c1.2,0,2.1-0.9,2.1-2c0-1.9,1.6-3.5,3.5-3.5s3.5,1.6,3.5,3.5v4.4c0,1.2,0.9,2,2,2h0.1H47c1.2,0,2-0.9,2-2v-4.4
		c0-1.9,1.6-3.5,3.5-3.5c2,0,3.5,1.6,3.5,3.5c0,1.2,0.9,2,2,2c1.2,0,2-0.9,2-2C60.2,109.6,56.8,106.2,52.6,106.2"/>
	<polygon fill="#AB5354" points="141.8,37.1 129.6,23.7 117.4,37.1 103.6,31.5 107.4,51.9 129.6,51.9 151.8,51.9 155.6,31.5 	"/>
</g>
<path fill="#868686" d="M249.3,203.8H12.1c-6.7,0-12.1-5.4-12.1-12.1V12.1C0,5.4,5.4,0,12.1,0H247c6.7,0,12.1,5.4,12.1,12.1v179.8
	C259.1,198.4,255.9,203.8,249.3,203.8 M12.1,6.8c-2.9,0-5.3,2.3-5.3,5.3v179.8c0,2.9,2.3,5.3,5.3,5.3H247c2.9,0,5.3-2.3,5.3-5.3
	V12.1c0-2.9-2.3-5.3-5.3-5.3H12.1z"/>
</svg>
