<?xml version="1.0" encoding="utf-8"?>
<!-- Generator: Adobe Illustrator 18.0.0, SVG Export Plug-In . SVG Version: 6.00 Build 0)  -->
<!DOCTYPE svg PUBLIC "-//W3C//DTD SVG 1.1//EN" "http://www.w3.org/Graphics/SVG/1.1/DTD/svg11.dtd">
<svg version="1.1" id="Camada_1" xmlns="http://www.w3.org/2000/svg" xmlns:xlink="http://www.w3.org/1999/xlink" x="0px" y="0px"
	 viewBox="0 0 259.1 203.8" enable-background="new 0 0 259.1 203.8" xml:space="preserve">
<g>
	<path fill="#AB5354" d="M74,73.3c0,0,7.6-2.4,3.1-12.8C72.6,50,63.8,49.1,62,50c-1.8,1,4.6,6.3,2.3,10.4C62.3,64.5,66,76.5,74,73.3
		"/>
	<path fill="#716F6F" d="M75.1,84.7c3.2,6.3,31.3,61.2,36,58.7C115.9,141,88,86,84.8,79.7c-3.2-6.3-5.9-11.4-10.6-8.9
		C69.5,73.2,71.9,78.4,75.1,84.7"/>
	<path fill="#5E5D5D" d="M74.2,70.7c0.5-0.2,0.9-0.4,1.3-0.5c-3.1,2.7-0.8,7.4,2.2,13.1c2.9,5.7,26.1,51.1,34.1,58
		c0.1,1.1-0.1,1.8-0.5,2c-4.7,2.4-32.8-52.4-36-58.7C72,78.4,69.5,73.2,74.2,70.7"/>
	<rect x="127.3" y="65.5" fill="#5E5D5D" width="10.5" height="78.6"/>
	<rect x="127.3" y="65.5" fill="#7F7F7E" width="3.8" height="78.6"/>
	<rect x="130.1" y="65.5" fill="#716F6F" width="3.8" height="78.6"/>
	<path fill="#88AFA8" d="M133.7,49.3l4,16h-10.5l4.4-16.1C132.1,47.8,133.4,47.9,133.7,49.3"/>
	<path fill="#AB5354" d="M132.6,55.5c1,0,1.8-0.2,2.7-0.5l-1.4-5.7c-0.3-1.4-1.6-1.4-2-0.1l-1.6,5.9
		C130.8,55.4,131.7,55.5,132.6,55.5"/>
	<path fill="#7A9D94" d="M149.3,178.9c0,0,6.5-9.6,9.2-16c2.7-6.5,2.7-34.4,2.7-34.4s-26.7,1.2-34.3,1.2c-7.6,0-18.6,0.3-19.6,7
		c-1,6.7,4.8,19.7,5.5,21.7c0.7,2,4.1,5.1,11.6,6.5C131.9,166.3,149.3,178.9,149.3,178.9"/>
	<path fill="#88AFA8" d="M105.8,133.3c0,0-5-21.9,0.5-24.6c5.5-2.7,11.8-4.8,11.8-1.8c0,3-0.8,27.9,0,30.8
		C118.9,140.5,107.4,143.1,105.8,133.3"/>
	<path fill="#88AFA8" d="M118.1,106.6c0,0,2.3-1.9,7.1-2.5c4.8-0.5,7.8,3.5,8.3,5.2c0.5,1.7,1.1,27.6,0,30c-1.1,2.3-10.6,4-13,2.3
		c-2.5-1.7-2.6-7.9-2.7-11.6C117.7,126.4,116.7,110.1,118.1,106.6"/>
	
		<rect x="152.3" y="69.2" transform="matrix(-0.8382 -0.5454 0.5454 -0.8382 231.3723 279.933)" fill="#5E5D5D" width="9.8" height="73"/>
	
		<rect x="177.6" y="55.6" transform="matrix(-0.8382 -0.5454 0.5454 -0.8382 300.674 223.5641)" fill="#5E5D5D" width="11.9" height="23.2"/>
	
		<rect x="186.6" y="58.5" transform="matrix(-0.8382 -0.5453 0.5453 -0.8382 305.5816 234.4205)" fill="#5E5D5D" width="1.8" height="26.7"/>
	
		<rect x="154.6" y="68.8" transform="matrix(-0.8382 -0.5454 0.5454 -0.8382 230.4217 278.8748)" fill="#7F7F7E" width="4" height="73"/>
	<path fill="#88AFA8" d="M133.4,109.4c0,0,6.4-2.2,12.2-1c5.8,1.2,4.6,14.7,4.8,17.3c0.2,2.5-1,12.1-2.5,13.7
		c-1.6,1.6-13.9,1.7-13.9-2.9C134.1,131.8,132.1,109.8,133.4,109.4"/>
	<path fill="#88AFA8" d="M147,134.5c-0.3,3.2,2.7,5.7,5.8,5.1c2.6-0.5,4.6,0.6,6.5-3.3c1.4-3,4.3-16.4,2-20.4
		c-2.3-4-10.6-4.9-11.9-3.3c-1.2,1.7-2,18.5-2.4,21.8V134.5z"/>
	<path fill="#88AFA8" d="M111.1,199.3v-51.1l17,4.6c12.5,3.3,21.2,14.7,21.2,27.6v18.9H111.1z"/>
	<path fill="#88AFA8" d="M113.5,184.3c0,0-8.5-16-14.7-21.8c-6.1-5.8-4.1-16.9-3.8-23.1c0.3-6.2-0.7-12.7,3.1-13.2
		c3.8-0.5,19.5,0.8,23.5-0.9c4.1-1.7,7.5,3.6,3.4,10c-4.1,6.4-12.8,7.4-14.4,6.8C109.1,141.3,122.7,179.2,113.5,184.3"/>
	<path fill="#AB5354" d="M144.6,28.5c0-1.4-1.8-6.5-7-6.5c-5.2,0-5.9,5.9-5.9,5.9s-0.7-5.9-5.9-5.9c-5.2,0-7,5.1-7,6.5
		c0,1.4-1,7.2,12.9,13.7C145.7,35.7,144.6,29.9,144.6,28.5"/>
	<path fill="#868686" d="M249.3,203.8H12.1c-6.7,0-12.1-5.4-12.1-12.1V12.1C0,5.4,5.4,0,12.1,0H247c6.7,0,12.1,5.4,12.1,12.1v179.8
		C259.1,198.4,255.9,203.8,249.3,203.8 M12.1,6.8c-2.9,0-5.3,2.3-5.3,5.3v179.8c0,2.9,2.3,5.3,5.3,5.3H247c2.9,0,5.3-2.3,5.3-5.3
		V12.1c0-2.9-2.3-5.3-5.3-5.3H12.1z"/>
</g>
</svg>
