<?xml version="1.0" encoding="utf-8"?>
<!-- Generator: Adobe Illustrator 18.0.0, SVG Export Plug-In . SVG Version: 6.00 Build 0)  -->
<!DOCTYPE svg PUBLIC "-//W3C//DTD SVG 1.1//EN" "http://www.w3.org/Graphics/SVG/1.1/DTD/svg11.dtd">
<svg version="1.1" id="Camada_1" xmlns="http://www.w3.org/2000/svg" xmlns:xlink="http://www.w3.org/1999/xlink" x="0px" y="0px"
	 viewBox="0 0 209.027 34.357" enable-background="new 0 0 209.027 34.357" xml:space="preserve">
<g>
	<path fill-rule="evenodd" clip-rule="evenodd" fill="#5E5D5D" d="M82.704,16.994c-0.25-0.25-0.506-0.482-0.77-0.696h1.368
		c0.855,0,1.553-0.698,1.553-1.553v-4.98V7.658c0-0.033,0-0.066-0.001-0.099v0c0-0.033-0.001-0.065-0.002-0.098v0
		c-0.001-0.032-0.002-0.065-0.003-0.097v0c-0.001-0.032-0.003-0.065-0.004-0.097V7.265C84.844,7.233,84.842,7.2,84.84,7.168V7.167
		c-0.122-1.913-0.954-3.64-2.233-4.919c-1.279-1.279-3.007-2.111-4.919-2.233h-0.001c-0.032-0.002-0.064-0.004-0.096-0.006H77.59
		l-0.097-0.004h0c-0.032-0.001-0.065-0.002-0.098-0.003h0c-0.033-0.001-0.065-0.002-0.098-0.002h0C77.264,0,77.231,0,77.198,0h0
		c-0.033,0-0.066,0-0.098,0.001h0c-0.033,0-0.065,0.001-0.098,0.002h0c-0.032,0.001-0.065,0.002-0.097,0.003h-0.001
		c-0.032,0.001-0.065,0.003-0.097,0.004h-0.001c-0.032,0.002-0.065,0.004-0.097,0.006h-0.001c-1.913,0.122-3.641,0.954-4.919,2.233
		c-1.278,1.278-2.11,3.006-2.233,4.919v0.001C69.553,7.2,69.552,7.233,69.55,7.265v0.001c-0.002,0.032-0.003,0.065-0.004,0.097v0
		c-0.001,0.032-0.002,0.065-0.003,0.097v0c-0.001,0.033-0.002,0.065-0.002,0.098v0c0,0.033-0.001,0.066-0.001,0.099v2.108v0.853
		v0.018v4.109v7.326v0v10.525h0.001h1.552v-3.403v-7.066h0.001l-0.001-0.056v0c0-1.678,0.687-2.872,1.794-3.979
		c1.106-1.106,2.633-1.794,4.31-1.794h0.372v0l0.056,0h0.001c1.678,0,2.872,0.687,3.979,1.794c1.106,1.106,1.794,2.633,1.794,4.311
		v6.073v2.568v1.553h1.553v-4.121v-6.073C84.952,20.296,84.091,18.381,82.704,16.994z M77.637,14.746l-0.01,0h-0.001l-0.007,0
		h-0.422c-2.107,0-4.022,0.861-5.409,2.248c-0.25,0.25-0.482,0.506-0.696,0.77v-1.465v-2.057v-0.013v-1.557v-1.966v-0.94V7.658
		l0.001-0.079v0l0.002-0.078v0c0.041-1.616,0.72-3.082,1.792-4.153c1.072-1.072,2.538-1.751,4.154-1.792h0l0.078-0.001h0l0.078,0h0
		l0.079,0h0l0.078,0.001h0c1.616,0.041,3.082,0.72,4.154,1.792c1.071,1.072,1.75,2.538,1.792,4.153v0
		c0.001,0.026,0.001,0.052,0.001,0.078v0c0,0.026,0,0.052,0,0.079v2.108v4.463c0,0.285-0.232,0.518-0.518,0.518H77.637z"/>
	<path fill-rule="evenodd" clip-rule="evenodd" fill="#5E5D5D" d="M200.856,33.187L200.856,33.187c-2.107,0-4.023-0.861-5.41-2.249
		c-1.387-1.387-2.248-3.302-2.248-5.409v-2.811h1.553v2.811c0,1.678,0.687,3.204,1.794,4.31c1.107,1.107,2.633,1.794,4.311,1.794h0
		c1.68,0,3.206-0.686,4.311-1.791l0.003-0.003c1.105-1.105,1.791-2.631,1.791-4.31v-2.811h0l0-0.056v0
		c0-1.678-0.687-2.872-1.794-3.979c-1.106-1.106-2.633-1.794-4.311-1.794h-6.105c-0.855,0-1.553-0.698-1.553-1.553l0,0V8.247
		c0-2.107,0.861-4.022,2.248-5.409c1.387-1.387,3.303-2.249,5.409-2.249h0c2.103,0,4.017,0.861,5.406,2.249l0.002,0.002l0.002,0.002
		c1.387,1.388,2.249,3.303,2.249,5.406v2.108h-1.553V8.247c0-1.68-0.686-3.206-1.791-4.311l-0.003-0.003
		c-1.105-1.105-2.631-1.791-4.311-1.791h0c-1.678,0-3.204,0.687-4.311,1.794c-1.106,1.106-1.794,2.633-1.794,4.311v6.57
		c0,0.285,0.232,0.518,0.518,0.518h5.588c2.107,0,4.022,0.861,5.409,2.248c1.387,1.387,2.249,2.971,2.249,5.078v0l-0.001,0.056
		h0.001v2.811c0,2.103-0.861,4.017-2.249,5.406l-0.002,0.002l-0.002,0.002C204.873,32.326,202.958,33.187,200.856,33.187
		L200.856,33.187z"/>
	<path fill-rule="evenodd" clip-rule="evenodd" fill="#5E5D5D" d="M190.936,8.149L190.936,8.149c0-0.033-0.001-0.065-0.002-0.098v0
		c-0.001-0.033-0.002-0.065-0.003-0.097v0c-0.001-0.032-0.003-0.065-0.004-0.097V7.855c-0.002-0.032-0.003-0.064-0.006-0.097V7.757
		c-0.122-1.913-0.954-3.64-2.233-4.919c-1.279-1.279-3.007-2.111-4.919-2.233h-0.001c-0.032-0.002-0.064-0.004-0.097-0.006h-0.001
		l-0.097-0.004h0c-0.032-0.001-0.065-0.002-0.097-0.003h0c-0.033-0.001-0.065-0.002-0.098-0.002h0
		c-0.033-0.001-0.066-0.001-0.098-0.001h0c-0.033,0-0.066,0-0.098,0.001h0c-0.033,0-0.065,0.001-0.098,0.002h0
		c-0.032,0.001-0.065,0.002-0.098,0.003h0c-0.032,0.001-0.065,0.003-0.097,0.004h-0.001c-0.032,0.001-0.064,0.003-0.097,0.006
		h-0.001c-1.913,0.122-3.64,0.954-4.919,2.233c-1.278,1.279-2.11,3.006-2.233,4.919v0.001c-0.002,0.032-0.004,0.064-0.005,0.097
		v0.001c-0.002,0.032-0.003,0.065-0.004,0.097v0c-0.001,0.032-0.002,0.065-0.003,0.097v0c-0.001,0.033-0.002,0.065-0.002,0.098v0
		c0,0.033-0.001,0.066-0.001,0.098v1.012v1.096v4.98v7.326v0v2.868c0,2.103,0.861,4.017,2.249,5.406l0.002,0.002l0.002,0.002
		c1.388,1.387,3.303,2.249,5.406,2.249h0c2.107,0,4.022-0.861,5.409-2.249c1.387-1.387,2.248-3.302,2.248-5.409v-2.811h-1.553v2.811
		c0,1.678-0.688,3.204-1.794,4.311c-1.107,1.107-2.633,1.794-4.311,1.794h0c-1.68,0-3.206-0.686-4.311-1.791l-0.003-0.003
		c-1.105-1.105-1.791-2.631-1.791-4.311v-1.567v-1.244h0l0-0.056v0c0-1.678,0.687-2.872,1.794-3.979
		c1.106-1.106,2.633-1.794,4.311-1.794h6.105c0.855,0,1.553-0.698,1.553-1.553v-4.98V8.247
		C190.937,8.215,190.937,8.182,190.936,8.149z M189.384,10.355v4.463c0,0.285-0.232,0.518-0.518,0.518h-5.587
		c-2.107,0-4.022,0.861-5.409,2.248c-0.25,0.25-0.482,0.506-0.696,0.77v-1.465v-2.057v-0.013v-3.523v-0.94V9.259V8.247l0-0.078v0
		l0.002-0.078v0c0.041-1.616,0.72-3.082,1.792-4.153c1.072-1.072,2.538-1.751,4.154-1.792h0l0.078-0.001h0l0.079,0h0l0.078,0h0
		l0.078,0.001h0c1.616,0.041,3.082,0.72,4.154,1.792c1.072,1.072,1.75,2.538,1.792,4.153v0c0.001,0.026,0.001,0.052,0.002,0.078v0
		c0,0.026,0,0.052,0,0.078V10.355z"/>
	<path fill-rule="evenodd" clip-rule="evenodd" fill="#5E5D5D" d="M142.238,32.597V7.658V7.658c0-1.68-0.686-3.206-1.791-4.311
		l-0.003-0.003c-1.008-1.009-2.368-1.668-3.875-1.775V0.012c1.931,0.11,3.678,0.945,4.971,2.236l0.001,0.002l0.002,0.002
		c0.597,0.597,1.096,1.292,1.472,2.058c0.375-0.766,0.875-1.461,1.472-2.058l0.003-0.003C145.876,0.861,147.79,0,149.895,0h0
		c2.107,0,4.022,0.861,5.409,2.248c0.597,0.597,1.097,1.293,1.473,2.059c0.375-0.765,0.875-1.459,1.471-2.056l0.003-0.003
		C159.639,0.861,161.553,0,163.658,0h0c2.107,0,4.022,0.861,5.409,2.248c1.387,1.387,2.249,3.302,2.249,5.409v24.94h-1.553V7.658
		c0-1.678-0.688-3.204-1.794-4.311c-1.106-1.106-2.633-1.794-4.311-1.794h0c-1.679,0-3.206,0.687-4.313,1.792
		c-1.105,1.107-1.792,2.634-1.792,4.313v24.94H156V7.658c0-1.678-0.687-3.204-1.794-4.311c-1.106-1.106-2.633-1.794-4.311-1.794h0
		c-1.679,0-3.206,0.687-4.313,1.792c-1.105,1.107-1.792,2.634-1.792,4.313v0.001v24.939H142.238L142.238,32.597z"/>
	<path fill-rule="evenodd" clip-rule="evenodd" fill="#5E5D5D" d="M134.415,2.248C133.028,0.861,131.113,0,129.006,0h0
		c-2.105,0-4.019,0.861-5.406,2.248l-0.003,0.003c-1.387,1.387-2.248,3.302-2.248,5.406v4.888v11.128v1.267
		c0,2.105,0.861,4.019,2.248,5.406l0.003,0.003c1.387,1.387,3.302,2.248,5.406,2.248h0c2.107,0,4.022-0.861,5.409-2.248
		c1.387-1.387,2.249-3.302,2.249-5.409v-1.267V12.545V7.658C136.664,5.551,135.803,3.635,134.415,2.248z M135.111,12.545v11.128
		v1.267c0,1.678-0.687,3.204-1.794,4.311c-1.106,1.106-2.633,1.794-4.311,1.794h0c-1.679,0-3.206-0.687-4.313-1.792
		c-1.105-1.107-1.792-2.634-1.792-4.313v-1.267V12.545V7.658c0-1.679,0.687-3.206,1.792-4.313c1.107-1.105,2.634-1.792,4.313-1.792
		h0c1.678,0,3.204,0.687,4.311,1.794c1.107,1.107,1.794,2.633,1.794,4.311V12.545z"/>
	<path fill-rule="evenodd" clip-rule="evenodd" fill="#5E5D5D" d="M116.221,3.406l-0.002,0.002l-0.002,0.002
		c-0.675,0.675-1.225,1.476-1.613,2.361c-0.354-0.65-0.8-1.243-1.319-1.762c-1.279-1.279-3.006-2.111-4.919-2.233h-0.001
		c-0.032-0.002-0.064-0.004-0.097-0.006h-0.001c-0.032-0.002-0.065-0.003-0.097-0.004h-0.001c-0.032-0.001-0.065-0.002-0.097-0.003
		h0c-0.033-0.001-0.065-0.002-0.098-0.002h0c-0.033-0.001-0.065-0.001-0.098-0.001h0c-0.033,0-0.066,0-0.098,0.001h0
		c-0.033,0-0.065,0.001-0.098,0.002h0c-0.032,0.001-0.065,0.002-0.097,0.003h-0.001l-0.097,0.004h-0.001
		c-0.032,0.002-0.064,0.003-0.097,0.006h-0.001c-1.913,0.122-3.64,0.954-4.919,2.233c-1.278,1.279-2.11,3.006-2.233,4.919v0.001
		c-0.002,0.032-0.004,0.064-0.006,0.097v0.001c-0.002,0.032-0.003,0.065-0.004,0.097v0c-0.001,0.032-0.002,0.065-0.003,0.097v0
		c-0.001,0.033-0.001,0.065-0.002,0.098v0c-0.001,0.033-0.001,0.066-0.001,0.098v2.108v7.826c0,0.855,0.698,1.553,1.553,1.553h6.105
		c1.678,0,3.204,0.687,4.311,1.794c1.107,1.107,1.794,2.301,1.794,3.979v0l0,0.028c0-0.002,0-0.003,0-0.005v0.034h-0.001l0-0.029
		c-0.001,1.678-0.687,3.202-1.791,4.305l-0.003,0.003c-1.105,1.105-2.631,1.791-4.311,1.791h0c-1.678,0-3.204-0.687-4.311-1.794
		c-1.106-1.106-1.794-2.633-1.794-4.311v-2.811h-1.553V26.7c0,2.107,0.861,4.022,2.248,5.409c1.387,1.387,3.303,2.249,5.409,2.249h0
		c2.103,0,4.017-0.861,5.406-2.249l0.002-0.002l0.001-0.002c1.387-1.388,2.249-3.303,2.249-5.406v-0.022v0v-7.326v-7.826V10.43
		V9.417c0-0.033,0-0.066-0.001-0.098v0c0-0.033-0.001-0.065-0.002-0.098v0c-0.001-0.033-0.002-0.065-0.003-0.097v0
		c-0.001-0.032-0.003-0.065-0.004-0.097V9.025c-0.002-0.032-0.004-0.064-0.006-0.097V8.927c-0.002-0.037-0.005-0.074-0.008-0.112
		h0.011v0c0-1.68,0.686-3.206,1.791-4.311l0.003-0.003c1.008-1.009,2.368-1.668,3.875-1.776V1.17
		C119.261,1.28,117.513,2.115,116.221,3.406z M113.982,10.43v1.096v0.94v6.368v0.013v2.057v1.465
		c-0.214-0.264-0.446-0.52-0.696-0.77c-1.387-1.387-3.302-2.248-5.409-2.248h-5.587c-0.285,0-0.518-0.232-0.518-0.518v-7.308V9.417
		c0-0.026,0-0.052,0-0.078v0c0-0.026,0.001-0.052,0.002-0.078v0c0.041-1.616,0.72-3.082,1.792-4.153
		c1.072-1.072,2.538-1.751,4.154-1.792h0l0.078-0.001h0l0.078,0h0l0.079,0h0l0.078,0.001h0c1.616,0.041,3.082,0.72,4.154,1.792
		c1.072,1.072,1.75,2.538,1.792,4.153v0l0.002,0.078v0l0.001,0.078V10.43z"/>
	<path fill-rule="evenodd" clip-rule="evenodd" fill="#5E5D5D" d="M66.617,8.149L66.617,8.149c0-0.033-0.001-0.065-0.002-0.098v0
		c-0.001-0.033-0.002-0.065-0.003-0.097v0c-0.001-0.032-0.003-0.065-0.004-0.097V7.855c-0.002-0.032-0.004-0.064-0.006-0.097V7.757
		c-0.122-1.913-0.954-3.64-2.233-4.919c-1.279-1.279-3.007-2.111-4.919-2.233H59.45c-0.032-0.002-0.064-0.004-0.096-0.006h-0.001
		l-0.097-0.004h-0.001c-0.032-0.001-0.065-0.002-0.098-0.003h0c-0.033-0.001-0.065-0.002-0.098-0.002h0
		C59.026,0.59,58.993,0.59,58.96,0.59h0c-0.033,0-0.066,0-0.098,0.001h0c-0.033,0-0.065,0.001-0.098,0.002h0
		c-0.032,0.001-0.065,0.002-0.098,0.003h0C58.633,0.597,58.6,0.598,58.568,0.6h-0.001c-0.032,0.001-0.064,0.003-0.096,0.006H58.47
		c-1.913,0.122-3.64,0.954-4.919,2.233c-1.279,1.279-2.111,3.006-2.233,4.919v0.001c-0.002,0.032-0.004,0.064-0.006,0.097v0.001
		c-0.002,0.032-0.003,0.065-0.004,0.097v0c-0.001,0.032-0.002,0.065-0.003,0.097v0c-0.001,0.033-0.002,0.065-0.002,0.098v0
		c-0.001,0.033-0.001,0.066-0.001,0.098v1.012v1.096v4.98v7.326v0v2.868c0,2.103,0.861,4.017,2.249,5.406l0.002,0.002l0.002,0.002
		c1.388,1.387,3.303,2.249,5.406,2.249h0c2.107,0,4.022-0.861,5.409-2.249c1.387-1.387,2.248-3.302,2.248-5.409v-2.811h-1.553v2.811
		c0,1.678-0.687,3.204-1.794,4.311c-1.107,1.107-2.633,1.794-4.311,1.794h0c-1.68,0-3.206-0.686-4.31-1.791l-0.003-0.003
		c-1.105-1.105-1.791-2.631-1.791-4.311v-1.567v-1.244h0l0-0.056v0c0-1.678,0.687-2.872,1.794-3.979
		c1.106-1.106,2.633-1.794,4.31-1.794h6.105c0.855,0,1.553-0.698,1.553-1.553v-4.98V8.247C66.618,8.215,66.618,8.182,66.617,8.149z
		 M65.065,10.355v4.463c0,0.285-0.232,0.518-0.518,0.518H58.96c-2.107,0-4.022,0.861-5.409,2.248c-0.25,0.25-0.482,0.506-0.696,0.77
		v-1.465v-2.057v-0.013v-3.523v-0.94V9.259V8.247l0-0.078v0l0.002-0.078v0c0.041-1.616,0.72-3.082,1.792-4.153
		c1.072-1.072,2.538-1.751,4.154-1.792h0l0.078-0.001h0l0.079,0h0l0.079,0h0l0.078,0.001h0c1.616,0.041,3.082,0.72,4.154,1.792
		c1.071,1.072,1.75,2.538,1.792,4.153v0c0.001,0.026,0.001,0.052,0.002,0.078v0c0,0.026,0.001,0.052,0.001,0.078V10.355z"/>
	<path fill-rule="evenodd" clip-rule="evenodd" fill="#5E5D5D" d="M25.748,33.187L25.748,33.187c-2.107,0-4.023-0.861-5.41-2.249
		c-1.387-1.387-2.248-3.302-2.248-5.409v-2.811h1.553v2.811c0,1.678,0.688,3.204,1.794,4.31c1.107,1.107,2.633,1.794,4.311,1.794h0
		c1.68,0,3.206-0.686,4.311-1.791l0.003-0.003c1.105-1.105,1.791-2.631,1.791-4.31v-2.811h0l0-0.056v0
		c0-1.678-0.687-2.872-1.794-3.979c-1.106-1.106-2.633-1.794-4.311-1.794h-6.105c-0.855,0-1.553-0.698-1.553-1.553l0,0V8.247
		c0-2.107,0.861-4.022,2.248-5.409c1.387-1.387,3.303-2.249,5.409-2.249h0c2.103,0,4.018,0.861,5.406,2.249l0.002,0.002l0.002,0.002
		c1.387,1.388,2.249,3.303,2.249,5.406v2.108h-1.553V8.247c0-1.68-0.686-3.206-1.791-4.311l-0.003-0.003
		c-1.105-1.105-2.631-1.791-4.311-1.791h0c-1.678,0-3.204,0.687-4.311,1.794c-1.106,1.106-1.794,2.633-1.794,4.311v6.57
		c0,0.285,0.232,0.518,0.518,0.518h5.588c2.107,0,4.022,0.861,5.409,2.248c1.387,1.387,2.249,2.971,2.249,5.078v0l0,0.056h0v2.811
		c0,2.103-0.861,4.017-2.249,5.406l-0.002,0.002l-0.002,0.002C29.765,32.326,27.85,33.187,25.748,33.187L25.748,33.187z"/>
	<path fill-rule="evenodd" clip-rule="evenodd" fill="#5E5D5D" d="M15.828,8.149L15.828,8.149c0-0.033-0.001-0.065-0.002-0.098v0
		c-0.001-0.033-0.002-0.065-0.003-0.097v0c-0.001-0.032-0.003-0.065-0.004-0.097V7.855c-0.002-0.032-0.004-0.064-0.006-0.097V7.757
		c-0.122-1.913-0.954-3.64-2.233-4.919c-1.279-1.279-3.007-2.111-4.919-2.233H8.661C8.628,0.603,8.596,0.602,8.564,0.6H8.563
		L8.466,0.595H8.466C8.433,0.594,8.401,0.593,8.368,0.592h0C8.335,0.591,8.303,0.591,8.27,0.59h0C8.237,0.59,8.204,0.59,8.171,0.59
		h0c-0.033,0-0.066,0-0.098,0.001h0c-0.033,0-0.065,0.001-0.098,0.002h0C7.941,0.593,7.909,0.594,7.876,0.595h0
		C7.844,0.597,7.811,0.598,7.779,0.6H7.778C7.746,0.601,7.714,0.603,7.682,0.605H7.681C5.768,0.728,4.04,1.56,2.761,2.838
		c-1.279,1.279-2.11,3.006-2.233,4.919v0.001C0.527,7.79,0.525,7.822,0.523,7.855v0.001C0.522,7.888,0.52,7.92,0.519,7.952v0
		C0.518,7.985,0.517,8.018,0.516,8.05v0C0.515,8.083,0.514,8.116,0.514,8.149v0C0.514,8.182,0.513,8.215,0.513,8.247v1.012v1.096
		v4.98v7.326v0v2.868c0,2.103,0.861,4.017,2.249,5.406l0.001,0.002l0.002,0.002c1.388,1.387,3.303,2.249,5.406,2.249h0
		c2.107,0,4.022-0.861,5.409-2.249c1.387-1.387,2.248-3.302,2.248-5.409v-2.811h-1.553v2.811c0,1.678-0.687,3.204-1.794,4.311
		c-1.107,1.107-2.633,1.794-4.311,1.794h0c-1.68,0-3.206-0.686-4.311-1.791L3.857,29.84c-1.105-1.105-1.791-2.631-1.791-4.311
		v-1.567v-1.244h0l0-0.056v0c0-1.678,0.687-2.872,1.794-3.979c1.106-1.106,2.633-1.794,4.311-1.794h6.105
		c0.855,0,1.553-0.698,1.553-1.553v-4.98V8.247C15.829,8.215,15.829,8.182,15.828,8.149z M14.276,10.355v4.463
		c0,0.285-0.232,0.518-0.518,0.518H8.171c-2.107,0-4.022,0.861-5.409,2.248c-0.25,0.25-0.482,0.506-0.696,0.77v-1.465v-2.057v-0.013
		v-3.523v-0.94V9.259V8.247l0-0.078v0l0.002-0.078v0C2.11,6.475,2.788,5.009,3.86,3.937c1.072-1.072,2.538-1.751,4.154-1.792h0
		l0.078-0.001h0l0.079,0h0l0.079,0h0l0.078,0.001h0c1.616,0.041,3.082,0.72,4.154,1.792c1.071,1.072,1.75,2.538,1.792,4.153v0
		c0.001,0.026,0.001,0.052,0.002,0.078v0c0,0.026,0.001,0.052,0.001,0.078V10.355z"/>
	<path fill-rule="evenodd" clip-rule="evenodd" fill="#5E5D5D" d="M42.972,0.59h-7.306h0v1.553h0c0.902,0,2.612,0,3.636,0
		c1.727,0,2.546,0,2.894,0.621v30.424h0.222h0.555h0.555h0.222V2.764c0.347-0.62,1.166-0.621,2.893-0.621c1.025,0,2.734,0,3.636,0h0
		V0.59h0H42.972L42.972,0.59z"/>
</g>
</svg>
